<?xml version="1.0" encoding="UTF-8"?>
<svg xmlns="http://www.w3.org/2000/svg" id="Livello_1" data-name="Livello 1" version="1.1" viewBox="0 0 756 186.3">
  <defs>
    <style>.cls-1{fill:#c51821}.cls-1,.cls-2,.cls-3{stroke-width:0}.cls-2{fill:#1d1d1b}.cls-3{fill:#fff}</style>
  </defs>
  <path d="M.4 0H209v150.8H.4z" class="cls-3"></path>
  <path d="M207.1 0H756v150.8H207.1z" class="cls-1"></path>
  <path d="M.4 0H756v3.4H.4zM.4 147.3H756v3.4H.4z" class="cls-2"></path>
  <path d="M.5 150.7V-.1h3.4v150.8zM752.6 150.8V0h3.4v150.8z" class="cls-2"></path>
  <path d="M22.9 29.9h8.7v90.9h-8.7V29.9ZM40.7 29.9h72.1v7.4H81.1v83.5h-8.7V37.3H40.7v-7.4ZM124.1 90.9c-.4 18.7 13.1 24.4 29.7 24.4s24.1-5.2 24.1-18.5-10.3-14.4-18.7-16.4l-20.2-5c-10.7-2.7-20.5-7.8-20.5-21.9s5.7-25.6 31.3-25.6 33.7 9.7 33.6 28.3h-8.7c-.5-13.9-12-20.9-24.8-20.9s-22.8 4.6-22.8 18.1 6.4 12.1 13.8 13.9l22.2 5.5c12.9 3.4 23.6 9 23.6 23.9s-2.5 26-34.8 26-37.3-9.7-36.3-31.8h8.7Z" class="cls-1"></path>
  <path d="M205.4 149V1.7h3.4V149z" class="cls-2"></path>
  <path d="m257.9 37 29.8 75.5h-5l-9.5-24.2h-36.1l-9.6 24.2h-5L252.8 37h5.1Zm13.8 47.3-16.2-42.7h-.2l-16.8 42.7h33.2ZM295.2 37v75.5h-4V37h4ZM325.8 61.6H314v37.9c0 8.8 4.1 9.6 11.7 9.4v3.5c-8.2.5-16.2-.6-15.7-12.9V61.6h-10v-3.5h10V41.2h4v16.9h11.8v3.5ZM353.5 56.9c16 0 24.9 13 24.9 28.4s-9 28.4-24.9 28.4-24.9-13-24.9-28.4 9-28.4 24.9-28.4Zm0 53.4c13.6 0 20.9-11.9 20.9-24.9s-7.3-24.9-20.9-24.9-20.9 11.9-20.9 24.9 7.3 24.9 20.9 24.9ZM413.9 37l29.8 75.5h-5l-9.5-24.2h-36.1l-9.6 24.2h-5L408.8 37h5.1Zm13.9 47.3-16.2-42.7h-.2l-16.8 42.7h33.2ZM488.2 100.8h-.2c-4.4 8.6-11.1 12.9-20.8 12.9-16.4 0-23.5-13.3-23.5-28.3s7.8-28.5 24.2-28.5 17.2 4.9 20.1 13.4h.2V37h4v75.5h-4v-11.6Zm-.1-15.4c0-12.7-6.2-25-20.2-25s-20.2 11.9-20.2 25 6.3 24.8 20.3 24.8 20.1-12.4 20.1-24.8ZM506.9 70.2h.3c2.1-7.1 11-12.8 20.8-12.4v4c-4.2-.5-10.1.5-15 5.3-4 4.1-5.7 7.5-6.1 15.6v29.7h-4V58.1h4v12ZM531.1 47.9V37h4v10.9h-4Zm0 64.6V58.2h4v54.3h-4ZM585.9 102.4c0 3.2 0 6.6 3.6 6.6s1.7-.1 3-.3v3.4c-1.2.2-2.2.4-3.3.4-6.3 0-7.3-3.5-7.3-7.9v-2.9h-.2c-2.5 6.4-9.8 12-20.2 12s-18.2-3.9-18.2-15.3 11-15.3 20-16.1C581.3 81 582 79.9 582 71s-2.7-10.7-15.1-10.7-16.2 5.1-16.7 14.5h-4c.5-11.9 7.9-18 20.7-18s19 3 19 14.2v31.4Zm-4.1-20.8c-3.2 3.6-11.8 3.2-19.7 4.2-9.5 1.1-14.9 4.4-14.9 12.6s4.8 11.8 14.3 11.8c18.3 0 20.3-15.6 20.3-18.5V81.6ZM616.5 61.6h-11.8v37.9c0 8.8 4.1 9.6 11.7 9.4v3.5c-8.2.5-16.2-.6-15.7-12.9V61.6h-10v-3.5h10V41.2h4v16.9h11.8v3.5ZM622.7 47.9V37h4v10.9h-4Zm0 64.6V58.2h4v54.3h-4ZM678.3 75c-.7-9.6-8.6-14.6-18.4-14.6S639 72.4 639 84.8s6.9 25.5 20.9 25.5 17.5-7 18.9-16.9h4c-1.8 13-11.2 20.4-22.9 20.4-17.6 0-24.9-13.8-24.9-29s8.9-27.9 24.9-27.9 21.2 5.7 22.4 18.1h-4ZM712.5 56.9c16 0 24.9 13 24.9 28.4s-9 28.4-24.9 28.4-24.9-13-24.9-28.4 9-28.4 24.9-28.4Zm0 53.4c13.6 0 20.9-11.9 20.9-24.9s-7.3-24.9-20.9-24.9-20.9 11.9-20.9 24.9 7.3 24.9 20.9 24.9Z" class="cls-3"></path>
  <path d="M386.1 161.4h4.2v9.7h11v-9.7h4.2v24.3h-4.2v-10.9h-11v10.9h-4.2v-24.3ZM410.2 161.4h4.2v14.1c0 3.3.2 7 5.7 7s5.7-3.8 5.7-7v-14.1h4.2v15.5c0 6.2-4 9.3-10 9.3s-10-3.1-10-9.3v-15.5ZM434.5 161.4h6l6.7 19 6.5-19h5.9v24.3h-4V167l-6.7 18.7h-3.5l-6.7-18.7v18.7h-4v-24.3ZM471.1 161.4h4.5l9.3 24.3h-4.6l-2.3-6.4h-9.7l-2.3 6.4h-4.4l9.3-24.3Zm-1.5 14.6h7.4l-3.6-10.4h-.1l-3.7 10.4ZM486.9 161.4h4.5l11.1 17.9v-17.9h4v24.3H502l-11-17.8h-.1v17.8h-4v-24.3Z" class="cls-1"></path>
  <path d="M537.2 169.1c-.7-2.8-2.5-4.8-6.1-4.8-5.2 0-7.4 4.6-7.4 9.2s2.2 9.2 7.4 9.2 5.8-2.8 6.2-6.4h4.1c-.3 5.8-4.5 9.8-10.3 9.8s-11.6-5.8-11.6-12.7 4.4-12.7 11.6-12.7c5.5 0 9.8 3.1 10.3 8.3h-4.2ZM550.8 161.4h4.5l9.3 24.3H560l-2.3-6.4H548l-2.3 6.4h-4.4l9.3-24.3Zm-1.5 14.6h7.4l-3.6-10.4h-.1l-3.7 10.4ZM566.7 161.4h10.7c6.9 0 8.3 4.5 8.3 7.5s-1.3 7.5-8.3 7.4h-6.5v9.3h-4.2v-24.3Zm4.3 11.5h6.2c1.9 0 4.2-1 4.2-4s-1.9-4-4.2-4h-6.3v8ZM588.4 161.4h4.2v24.3h-4.2v-24.3ZM594.9 161.4h19.6v3.7h-7.7v20.6h-4.2v-20.6h-7.7v-3.7ZM620.8 161.4h4.5l9.3 24.3H630l-2.3-6.4H618l-2.3 6.4h-4.4l9.3-24.3Zm-1.5 14.6h7.4l-3.6-10.4h-.1l-3.7 10.4ZM636.7 161.4h4.2V182h12.3v3.7h-16.6v-24.3Z" class="cls-2"></path>
  <path d="M665.3 161.4h16.8v3.7h-12.5v6.4h11v3.5h-11v10.8h-4.2v-24.3ZM684.6 161.4h4.2v24.3h-4.2v-24.3ZM693.5 161.4h11.6c5.3 0 8 2.4 8 6.6s-3.2 5.8-4 6.1c1.5.3 3.6 1.4 3.6 5.2s.4 5.4 1.3 6.4h-4.6c-.6-1.1-.6-2.4-.6-3.6 0-4.5-.9-6.4-4.8-6.4h-6.3v10h-4.2v-24.3Zm4.3 11.1h7c2.7 0 4.1-1.3 4.1-3.9s-2-3.7-4.2-3.7h-6.9v7.6ZM719.9 177.6c0 3.7 2.8 5.2 6.2 5.2s5.1-1.8 5.1-3.7-1-2.6-2-3c-1.7-.6-3.9-1.1-7.2-2-4.1-1.1-5.4-3.6-5.4-6.2 0-4.9 4.5-7.1 8.9-7.1s9.3 2.7 9.3 7.8h-4.2c-.2-3.1-2.3-4.3-5.2-4.3s-4.5.7-4.5 3.2 1.2 2.7 2.9 3.1c.4.1 5.7 1.5 7 1.9 3.2 1 4.7 3.7 4.7 6.2 0 5.4-4.8 7.6-9.7 7.6s-10-2.7-10.1-8.7h4.2ZM736.3 161.4h19.6v3.7h-7.7v20.6H744v-20.6h-7.7v-3.7Z" class="cls-1"></path>
  <path d="M9.3 161.4h4.5l9.3 24.3h-4.6l-2.3-6.4H6.7l-2.3 6.4H0l9.3-24.3ZM7.8 176h7.4l-3.6-10.4h-.1L7.8 176ZM40.6 169.1c-.7-2.8-2.5-4.8-6.1-4.8-5.2 0-7.4 4.6-7.4 9.2s2.2 9.2 7.4 9.2 5.8-2.8 6.2-6.4h4.1c-.3 5.8-4.5 9.8-10.3 9.8s-11.6-5.8-11.6-12.7 4.4-12.7 11.6-12.7c5.5 0 9.8 3.1 10.3 8.3h-4.2ZM54.2 161.4h4.5l9.3 24.3h-4.6l-2.3-6.4h-9.7l-2.3 6.4h-4.4l9.3-24.3ZM52.7 176h7.4l-3.6-10.4h-.1L52.7 176ZM70.1 161.4h10.1c7.5 0 10.7 5.4 10.7 12.1s-3.2 12.1-10.7 12.1H70.1v-24.3Zm4.3 20.8h4.2c6.7 0 8.1-3.8 8.1-8.7s-1.4-8.7-8.1-8.7h-4.2v17.3ZM94.4 161.4h17.5v3.7H98.7v6.4h12.2v3.5H98.7v7.1h13.5v3.7H94.5v-24.3ZM115.3 161.4h6l6.7 19 6.5-19h5.9v24.3h-4V167l-6.7 18.7h-3.5l-6.7-18.7v18.7h-4v-24.3ZM151.7 176.2l-9.1-14.8h4.9l6.4 10.9 6.3-10.9h4.8l-9.1 14.8v9.5h-4.2v-9.5Z" class="cls-2"></path>
</svg>
